<svg width="125" height="63" viewBox="0 0 125 63" xmlns="http://www.w3.org/2000/svg">
<g filter="url(#filter0_d)">
<mask id="path-1-inside-1">
<path d="M71.1029 21.8108C71.1029 22.235 71.4432 22.5789 71.8629 22.5789H73.257C73.6767 22.5789 74.017 22.235 74.017 21.8108C74.017 21.3867 73.6767 21.0428 73.257 21.0428H71.8629C71.4432 21.0428 71.1029 21.3867 71.1029 21.8108Z"/>
<path d="M81.0555 25.9739C80.8991 25.9739 80.746 25.988 80.5967 26.0137L75.5876 17.6152C75.6077 17.5905 75.627 17.5646 75.6443 17.5369L79.0081 12.1378C79.1476 11.914 79.1632 11.6333 79.0496 11.3951C78.936 11.1568 78.709 10.9943 78.4489 10.9651L72.9302 10.3458L73.5568 4.77066C73.5863 4.50808 73.4803 4.24857 73.2757 4.08367C73.0715 3.91886 72.7975 3.87169 72.5506 3.95907L67.3098 5.81312L65.4798 0.514987C65.3935 0.265238 65.1863 0.077926 64.9311 0.0191934C64.6761 -0.0393585 64.4087 0.0385302 64.224 0.225842L60.3032 4.20023L56.3824 0.225842C56.1976 0.0385302 55.9304 -0.0395392 55.6754 0.0191934C55.4202 0.077926 55.2129 0.265328 55.1266 0.514897L53.2967 5.81303L48.0558 3.95907C47.8088 3.87178 47.535 3.91877 47.3306 4.08367C47.1262 4.24848 47.02 4.50799 47.0495 4.77066L47.6761 10.3458L42.1575 10.9652C41.8973 10.9944 41.6704 11.1569 41.5567 11.3952C41.4431 11.6334 41.4587 11.914 41.5982 12.1379L44.5566 16.8862L39.8552 19.8699C39.6338 20.0104 39.4994 20.2561 39.4994 20.5203C39.4994 20.7845 39.6338 21.0301 39.8552 21.1707L44.5567 24.1545L41.5983 28.9028C41.4509 29.1394 41.4424 29.4382 41.5759 29.6829C41.7094 29.9276 41.964 30.0798 42.2406 30.0802L78.7147 30.1216C79.1891 30.9295 80.0606 31.4725 81.0556 31.4725C82.5556 31.4725 83.7761 30.2392 83.7761 28.7232C83.7759 27.2071 82.5555 25.9739 81.0555 25.9739ZM78.3385 28.5851L64.7878 28.5697C62.9935 22.4277 67.437 17.651 72.6207 15.6166L79.2255 26.6905C78.7102 27.1648 78.3754 27.8359 78.3385 28.5851ZM46.2483 24.3223C46.3558 24.1498 46.391 23.9412 46.3462 23.7424C46.3013 23.5437 46.1803 23.3711 46.0094 23.2626L41.6885 20.5202L46.0094 17.7779C46.1803 17.6694 46.3014 17.4968 46.3462 17.2981C46.3911 17.0993 46.3558 16.8906 46.2483 16.7181L43.5308 12.3565L48.6011 11.7874C48.8018 11.7649 48.9853 11.6625 49.1113 11.5031C49.2373 11.3437 49.2952 11.1401 49.2724 10.9374L48.6965 5.81303L53.5123 7.51673C53.7026 7.58404 53.9116 7.57203 54.0934 7.48375C54.2751 7.3952 54.4145 7.23734 54.481 7.04506L56.1621 2.17811L59.765 5.83029C59.9076 5.97486 60.1012 6.05609 60.3032 6.05609C60.5052 6.05609 60.6989 5.97486 60.8415 5.83029L64.4444 2.17811L66.1254 7.04506C66.1919 7.23752 66.3314 7.39538 66.513 7.48384C66.6946 7.5723 66.9038 7.58422 67.0941 7.51682L71.91 5.81312L71.3341 10.9375C71.3113 11.1402 71.3693 11.3437 71.4952 11.5032C71.6211 11.6628 71.8047 11.765 72.0053 11.7875L77.0757 12.3565L74.713 16.1485L73.5989 14.2806C73.4135 13.9699 73.0382 13.8328 72.6993 13.9513C69.2141 15.1709 66.3513 17.3009 64.6386 19.9491C62.9329 22.5865 62.447 25.547 63.2108 28.5677L43.6173 28.5454L46.2483 24.3223ZM81.0555 29.9363C80.3936 29.9363 79.855 29.3921 79.855 28.7231C79.855 28.0541 80.3936 27.5098 81.0555 27.5098C81.7174 27.5098 82.256 28.0541 82.256 28.7231C82.256 29.3921 81.7174 29.9363 81.0555 29.9363Z"/>
<path d="M19.0325 54.4821C19.0752 54.4821 19.0966 54.5253 19.0966 54.6116C19.0966 54.6979 19.0752 54.7411 19.0325 54.7411C18.5343 54.7411 18.1357 54.7339 17.8368 54.7195L16.1926 54.6979L14.2708 54.7195C14.0146 54.7339 13.6658 54.7411 13.2245 54.7411C13.1818 54.7411 13.1605 54.6979 13.1605 54.6116C13.1605 54.5253 13.1818 54.4821 13.2245 54.4821C13.7512 54.4821 14.1356 54.4461 14.3776 54.3742C14.6196 54.3023 14.7833 54.1656 14.8687 53.9642C14.9541 53.7628 14.9968 53.4391 14.9968 52.9932V48.03H8.09978V52.9932C8.09978 53.4247 8.14249 53.7484 8.2279 53.9642C8.31332 54.1656 8.47702 54.3023 8.71902 54.3742C8.96102 54.4461 9.34538 54.4821 9.87209 54.4821C9.90056 54.4821 9.91479 54.5253 9.91479 54.6116C9.91479 54.6979 9.90056 54.7411 9.87209 54.7411C9.37385 54.7411 8.97526 54.7339 8.67632 54.7195L6.8186 54.6979L5.21712 54.7195C4.93242 54.7339 4.54094 54.7411 4.04271 54.7411C4.01424 54.7411 4 54.6979 4 54.6116C4 54.5253 4.01424 54.4821 4.04271 54.4821C4.54094 54.4821 4.90395 54.4461 5.13171 54.3742C5.35948 54.3023 5.51607 54.1656 5.60148 53.9642C5.68689 53.7484 5.7296 53.4247 5.7296 52.9932V43.0021C5.7296 42.5705 5.68689 42.254 5.60148 42.0526C5.51607 41.8512 5.35948 41.7145 5.13171 41.6426C4.91818 41.5563 4.56941 41.5131 4.08541 41.5131C4.04271 41.5131 4.02135 41.47 4.02135 41.3836C4.02135 41.2973 4.04271 41.2542 4.08541 41.2542L5.23848 41.2758C5.8933 41.3045 6.42001 41.3189 6.8186 41.3189C7.35955 41.3189 7.9859 41.3045 8.69767 41.2758L9.87209 41.2542C9.90056 41.2542 9.91479 41.2973 9.91479 41.3836C9.91479 41.47 9.90056 41.5131 9.87209 41.5131C9.35961 41.5131 8.98238 41.5563 8.74038 41.6426C8.49837 41.7289 8.32755 41.88 8.2279 42.0958C8.14249 42.2972 8.09978 42.6137 8.09978 43.0452V47.4258H14.9968V43.0452C14.9968 42.6137 14.9541 42.2972 14.8687 42.0958C14.7833 41.88 14.6196 41.7289 14.3776 41.6426C14.1356 41.5563 13.7512 41.5131 13.2245 41.5131C13.1818 41.5131 13.1605 41.47 13.1605 41.3836C13.1605 41.2973 13.1818 41.2542 13.2245 41.2542L14.2708 41.2758C14.9826 41.3045 15.6232 41.3189 16.1926 41.3189C16.5769 41.3189 17.125 41.3045 17.8368 41.2758L19.0325 41.2542C19.0752 41.2542 19.0966 41.2973 19.0966 41.3836C19.0966 41.47 19.0752 41.5131 19.0325 41.5131C18.5485 41.5131 18.1855 41.5563 17.9435 41.6426C17.7158 41.7145 17.5592 41.8512 17.4738 42.0526C17.4026 42.254 17.367 42.5705 17.367 43.0021V52.9932C17.367 53.4247 17.4026 53.7484 17.4738 53.9642C17.5592 54.1656 17.7158 54.3023 17.9435 54.3742C18.1713 54.4461 18.5343 54.4821 19.0325 54.4821Z"/>
<path d="M30.2999 51.31C30.2999 51.2812 30.3284 51.2668 30.3854 51.2668C30.4281 51.2668 30.4636 51.2812 30.4921 51.31C30.5348 51.3244 30.5562 51.3388 30.5562 51.3531C30.4138 52.4753 30.3426 53.4967 30.3426 54.4174C30.3426 54.5325 30.3213 54.6188 30.2786 54.6763C30.2359 54.7195 30.1505 54.7411 30.0224 54.7411H20.5843C20.5416 54.7411 20.5202 54.6979 20.5202 54.6116C20.5202 54.5253 20.5416 54.4821 20.5843 54.4821C21.0398 54.4821 21.3673 54.4461 21.5665 54.3742C21.7801 54.3023 21.9224 54.1656 21.9936 53.9642C22.0648 53.7484 22.1004 53.4247 22.1004 52.9932V43.0021C22.1004 42.5705 22.0648 42.254 21.9936 42.0526C21.9224 41.8512 21.7801 41.7145 21.5665 41.6426C21.353 41.5563 21.0256 41.5131 20.5843 41.5131C20.5416 41.5131 20.5202 41.47 20.5202 41.3836C20.5202 41.2973 20.5416 41.2542 20.5843 41.2542H29.638C29.7804 41.2542 29.8515 41.3189 29.8515 41.4484L29.8942 44.3184C29.8942 44.3472 29.8515 44.3687 29.7661 44.3831C29.6949 44.3975 29.6522 44.3831 29.638 44.34C29.4102 43.5056 29.0259 42.887 28.4849 42.4842C27.944 42.0814 27.2322 41.88 26.3496 41.88H25.709C25.282 41.88 24.9688 41.9735 24.7695 42.1605C24.5702 42.3475 24.4706 42.6352 24.4706 43.0237V47.4258H26.2429C27.0685 47.4258 27.702 47.2819 28.1433 46.9942C28.5846 46.7065 28.8052 46.3037 28.8052 45.7858C28.8052 45.7426 28.8408 45.721 28.912 45.721C28.9974 45.721 29.0401 45.7426 29.0401 45.7858L29.0188 47.7279L29.0401 48.7637C29.0686 49.2528 29.0828 49.6412 29.0828 49.9289C29.0828 49.9577 29.0401 49.9721 28.9547 49.9721C28.8693 49.9721 28.8266 49.9577 28.8266 49.9289C28.8266 49.3391 28.5988 48.8788 28.1433 48.5479C27.702 48.2026 27.0614 48.03 26.2215 48.03H24.4706V52.9068C24.4706 53.324 24.5489 53.6333 24.7054 53.8347C24.862 54.0361 25.1112 54.1368 25.4528 54.1368H26.1575C27.2678 54.1368 28.1575 53.9067 28.8266 53.4463C29.4956 52.986 29.9868 52.2739 30.2999 51.31Z"/>
<path d="M38.4516 54.8274C37.9961 54.8274 37.4552 54.8058 36.8288 54.7626C36.601 54.7482 36.3163 54.7339 35.9747 54.7195C35.6473 54.7051 35.2771 54.6979 34.8643 54.6979L33.2842 54.7195C32.9995 54.7339 32.6151 54.7411 32.1311 54.7411C32.1027 54.7411 32.0884 54.6979 32.0884 54.6116C32.0884 54.5253 32.1027 54.4821 32.1311 54.4821C32.5867 54.4821 32.9212 54.4461 33.1347 54.3742C33.3483 54.3023 33.4906 54.1656 33.5618 53.9642C33.6472 53.7484 33.6899 53.4247 33.6899 52.9932V43.0021C33.6899 42.5705 33.6472 42.254 33.5618 42.0526C33.4906 41.8512 33.3483 41.7145 33.1347 41.6426C32.9354 41.5563 32.6151 41.5131 32.1738 41.5131C32.1311 41.5131 32.1098 41.47 32.1098 41.3836C32.1098 41.2973 32.1311 41.2542 32.1738 41.2542L33.3056 41.2758C33.9604 41.3045 34.48 41.3189 34.8643 41.3189C35.448 41.3189 36.0459 41.2973 36.658 41.2542C37.3982 41.2254 37.8965 41.211 38.1527 41.211C39.5905 41.211 40.8645 41.4987 41.9749 42.0742C43.0995 42.6496 43.9678 43.4337 44.58 44.4263C45.1921 45.4189 45.4981 46.5338 45.4981 47.771C45.4981 49.1665 45.1778 50.4037 44.5373 51.4826C43.9109 52.5472 43.0568 53.3744 41.9749 53.9642C40.9072 54.5396 39.7328 54.8274 38.4516 54.8274ZM38.2381 54.3311C39.1492 54.3311 39.9535 54.1009 40.651 53.6405C41.3485 53.1658 41.8895 52.4681 42.2738 51.5474C42.6724 50.6267 42.8717 49.5261 42.8717 48.2458C42.8717 47.023 42.6867 45.9152 42.3165 44.9226C41.9464 43.9156 41.4197 43.1244 40.7364 42.5489C40.0531 41.9735 39.2631 41.6858 38.3662 41.6858C37.4836 41.6858 36.8786 41.7721 36.5512 41.9447C36.2238 42.1173 36.0601 42.4842 36.0601 43.0452V52.7558C36.0601 53.3312 36.2096 53.7412 36.5085 53.9858C36.8075 54.216 37.384 54.3311 38.2381 54.3311Z"/>
<path d="M55.2795 55C53.7136 55 52.347 54.6979 51.1797 54.0937C50.0124 53.4895 49.1227 52.6695 48.5106 51.6337C47.8985 50.5835 47.5924 49.4182 47.5924 48.1379C47.5924 46.7568 47.9412 45.5268 48.6387 44.4479C49.3505 43.3545 50.3185 42.5129 51.5427 41.9231C52.7812 41.3189 54.162 41.0168 55.6852 41.0168C56.3543 41.0168 57.0305 41.0743 57.7137 41.1894C58.397 41.2901 58.9451 41.4268 59.3579 41.5994C59.4861 41.6426 59.5643 41.7001 59.5928 41.7721C59.6355 41.8296 59.664 41.9375 59.6782 42.0958L59.9558 45.0952C59.9558 45.1384 59.9202 45.1672 59.8491 45.1815C59.7779 45.1959 59.7281 45.1744 59.6996 45.1168C59.2013 44.0091 58.5109 43.1459 57.6283 42.5273C56.76 41.9087 55.7635 41.5994 54.6389 41.5994C53.1869 41.5994 52.0765 42.1101 51.3078 43.1315C50.5534 44.153 50.1761 45.5484 50.1761 47.3179C50.1761 48.7421 50.4181 50.0153 50.9021 51.1374C51.3861 52.2451 52.0552 53.1082 52.9093 53.7268C53.7777 54.3311 54.7457 54.6332 55.8133 54.6332C56.397 54.6332 56.8454 54.5684 57.1586 54.4389C57.4717 54.3095 57.6995 54.0577 57.8419 53.6837C57.9842 53.3096 58.0554 52.7558 58.0554 52.0221C58.0554 51.274 58.0127 50.7561 57.9273 50.4684C57.8419 50.1663 57.6568 49.9649 57.3721 49.8642C57.1016 49.7635 56.6247 49.7131 55.9414 49.7131C55.856 49.7131 55.8133 49.6556 55.8133 49.5405C55.8133 49.4974 55.8204 49.4614 55.8347 49.4326C55.8632 49.3895 55.8916 49.3679 55.9201 49.3679C57.1301 49.4398 58.1052 49.4758 58.8455 49.4758C59.5715 49.4758 60.3259 49.4542 61.1089 49.411C61.1374 49.411 61.1587 49.4326 61.1729 49.4758C61.2014 49.5045 61.2156 49.5333 61.2156 49.5621C61.2156 49.6628 61.1801 49.7131 61.1089 49.7131C60.8526 49.6988 60.6747 49.7491 60.5751 49.8642C60.4754 49.9649 60.4114 50.1807 60.3829 50.5116C60.3544 50.8281 60.3402 51.4035 60.3402 52.2379C60.3402 52.8853 60.3615 53.3456 60.4042 53.6189C60.4612 53.8923 60.4896 54.0649 60.4896 54.1368C60.4896 54.2232 60.4683 54.2807 60.4256 54.3095C60.3971 54.3382 60.3331 54.367 60.2334 54.3958C58.397 54.7986 56.7457 55 55.2795 55Z"/>
<path d="M72.4847 51.31C72.4847 51.2812 72.5132 51.2668 72.5701 51.2668C72.6128 51.2668 72.6484 51.2812 72.6769 51.31C72.7196 51.3244 72.741 51.3388 72.741 51.3531C72.5986 52.4753 72.5274 53.4967 72.5274 54.4174C72.5274 54.5325 72.5061 54.6188 72.4634 54.6763C72.4207 54.7195 72.3353 54.7411 72.2071 54.7411H62.7691C62.7264 54.7411 62.705 54.6979 62.705 54.6116C62.705 54.5253 62.7264 54.4821 62.7691 54.4821C63.2246 54.4821 63.552 54.4461 63.7513 54.3742C63.9649 54.3023 64.1072 54.1656 64.1784 53.9642C64.2496 53.7484 64.2851 53.4247 64.2851 52.9932V43.0021C64.2851 42.5705 64.2496 42.254 64.1784 42.0526C64.1072 41.8512 63.9649 41.7145 63.7513 41.6426C63.5378 41.5563 63.2104 41.5131 62.7691 41.5131C62.7264 41.5131 62.705 41.47 62.705 41.3836C62.705 41.2973 62.7264 41.2542 62.7691 41.2542H71.8228C71.9651 41.2542 72.0363 41.3189 72.0363 41.4484L72.079 44.3184C72.079 44.3472 72.0363 44.3687 71.9509 44.3831C71.8797 44.3975 71.837 44.3831 71.8228 44.34C71.595 43.5056 71.2107 42.887 70.6697 42.4842C70.1288 42.0814 69.417 41.88 68.5344 41.88H67.8938C67.4668 41.88 67.1536 41.9735 66.9543 42.1605C66.755 42.3475 66.6553 42.6352 66.6553 43.0237V47.4258H68.4276C69.2533 47.4258 69.8868 47.2819 70.3281 46.9942C70.7694 46.7065 70.99 46.3037 70.99 45.7858C70.99 45.7426 71.0256 45.721 71.0968 45.721C71.1822 45.721 71.2249 45.7426 71.2249 45.7858L71.2035 47.7279L71.2249 48.7637C71.2534 49.2528 71.2676 49.6412 71.2676 49.9289C71.2676 49.9577 71.2249 49.9721 71.1395 49.9721C71.0541 49.9721 71.0114 49.9577 71.0114 49.9289C71.0114 49.3391 70.7836 48.8788 70.3281 48.5479C69.8868 48.2026 69.2462 48.03 68.4063 48.03H66.6553V52.9068C66.6553 53.324 66.7336 53.6333 66.8902 53.8347C67.0468 54.0361 67.2959 54.1368 67.6376 54.1368H68.3422C69.4526 54.1368 70.3423 53.9067 71.0114 53.4463C71.6804 52.986 72.1715 52.2739 72.4847 51.31Z"/>
<path d="M89.3057 54.4821C89.3484 54.4821 89.3698 54.5253 89.3698 54.6116C89.3698 54.6979 89.3484 54.7411 89.3057 54.7411C88.8075 54.7411 88.4089 54.7339 88.11 54.7195L86.4658 54.6979L84.544 54.7195C84.2878 54.7339 83.939 54.7411 83.4977 54.7411C83.455 54.7411 83.4337 54.6979 83.4337 54.6116C83.4337 54.5253 83.455 54.4821 83.4977 54.4821C84.0244 54.4821 84.4088 54.4461 84.6508 54.3742C84.8928 54.3023 85.0565 54.1656 85.1419 53.9642C85.2273 53.7628 85.27 53.4391 85.27 52.9932V48.03H78.373V52.9932C78.373 53.4247 78.4157 53.7484 78.5011 53.9642C78.5865 54.1656 78.7502 54.3023 78.9922 54.3742C79.2342 54.4461 79.6186 54.4821 80.1453 54.4821C80.1738 54.4821 80.188 54.5253 80.188 54.6116C80.188 54.6979 80.1738 54.7411 80.1453 54.7411C79.6471 54.7411 79.2485 54.7339 78.9495 54.7195L77.0918 54.6979L75.4903 54.7195C75.2056 54.7339 74.8141 54.7411 74.3159 54.7411C74.2874 54.7411 74.2732 54.6979 74.2732 54.6116C74.2732 54.5253 74.2874 54.4821 74.3159 54.4821C74.8141 54.4821 75.1771 54.4461 75.4049 54.3742C75.6327 54.3023 75.7893 54.1656 75.8747 53.9642C75.9601 53.7484 76.0028 53.4247 76.0028 52.9932V43.0021C76.0028 42.5705 75.9601 42.254 75.8747 42.0526C75.7893 41.8512 75.6327 41.7145 75.4049 41.6426C75.1914 41.5563 74.8426 41.5131 74.3586 41.5131C74.3159 41.5131 74.2946 41.47 74.2946 41.3836C74.2946 41.2973 74.3159 41.2542 74.3586 41.2542L75.5117 41.2758C76.1665 41.3045 76.6932 41.3189 77.0918 41.3189C77.6327 41.3189 78.2591 41.3045 78.9709 41.2758L80.1453 41.2542C80.1738 41.2542 80.188 41.2973 80.188 41.3836C80.188 41.47 80.1738 41.5131 80.1453 41.5131C79.6328 41.5131 79.2556 41.5563 79.0136 41.6426C78.7716 41.7289 78.6008 41.88 78.5011 42.0958C78.4157 42.2972 78.373 42.6137 78.373 43.0452V47.4258H85.27V43.0452C85.27 42.6137 85.2273 42.2972 85.1419 42.0958C85.0565 41.88 84.8928 41.7289 84.6508 41.6426C84.4088 41.5563 84.0244 41.5131 83.4977 41.5131C83.455 41.5131 83.4337 41.47 83.4337 41.3836C83.4337 41.2973 83.455 41.2542 83.4977 41.2542L84.544 41.2758C85.2558 41.3045 85.8964 41.3189 86.4658 41.3189C86.8502 41.3189 87.3982 41.3045 88.11 41.2758L89.3057 41.2542C89.3484 41.2542 89.3698 41.2973 89.3698 41.3836C89.3698 41.47 89.3484 41.5131 89.3057 41.5131C88.8217 41.5131 88.4587 41.5563 88.2167 41.6426C87.989 41.7145 87.8324 41.8512 87.747 42.0526C87.6758 42.254 87.6402 42.5705 87.6402 43.0021V52.9932C87.6402 53.4247 87.6758 53.7484 87.747 53.9642C87.8324 54.1656 87.989 54.3023 88.2167 54.3742C88.4445 54.4461 88.8075 54.4821 89.3057 54.4821Z"/>
<path d="M97.7972 55C96.4734 55 95.2918 54.6907 94.2526 54.0721C93.2277 53.4391 92.4305 52.5903 91.8611 51.5258C91.3059 50.4468 91.0283 49.2744 91.0283 48.0084C91.0283 46.5266 91.3985 45.2607 92.1387 44.2105C92.8789 43.1459 93.8256 42.3475 94.9786 41.8152C96.1459 41.2829 97.3346 41.0168 98.5446 41.0168C99.897 41.0168 101.086 41.3405 102.111 41.9879C103.136 42.6208 103.918 43.4624 104.459 44.5126C105.015 45.5628 105.292 46.6777 105.292 47.8573C105.292 49.1665 104.951 50.3677 104.267 51.461C103.584 52.5544 102.666 53.4175 101.513 54.0505C100.374 54.6835 99.1354 55 97.7972 55ZM98.5019 54.4605C99.2991 54.4605 100.011 54.2303 100.637 53.77C101.278 53.2953 101.776 52.6119 102.132 51.72C102.488 50.8137 102.666 49.7347 102.666 48.4831C102.666 47.1596 102.466 45.98 102.068 44.9442C101.669 43.894 101.093 43.074 100.338 42.4842C99.5838 41.8943 98.7012 41.5994 97.6905 41.5994C96.3951 41.5994 95.3986 42.0958 94.7011 43.0884C94.0035 44.0666 93.6548 45.4405 93.6548 47.21C93.6548 48.6054 93.8612 49.857 94.274 50.9647C94.7011 52.0581 95.2776 52.914 96.0036 53.5326C96.7438 54.1512 97.5766 54.4605 98.5019 54.4605Z"/>
<path d="M115.064 55C113.498 55 112.131 54.6979 110.964 54.0937C109.797 53.4895 108.907 52.6695 108.295 51.6337C107.683 50.5835 107.377 49.4182 107.377 48.1379C107.377 46.7568 107.726 45.5268 108.423 44.4479C109.135 43.3545 110.103 42.5129 111.327 41.9231C112.566 41.3189 113.946 41.0168 115.47 41.0168C116.139 41.0168 116.815 41.0743 117.498 41.1894C118.181 41.2901 118.729 41.4268 119.142 41.5994C119.27 41.6426 119.349 41.7001 119.377 41.7721C119.42 41.8296 119.448 41.9375 119.463 42.0958L119.74 45.0952C119.74 45.1384 119.705 45.1672 119.633 45.1815C119.562 45.1959 119.512 45.1744 119.484 45.1168C118.986 44.0091 118.295 43.1459 117.413 42.5273C116.544 41.9087 115.548 41.5994 114.423 41.5994C112.971 41.5994 111.861 42.1101 111.092 43.1315C110.338 44.153 109.96 45.5484 109.96 47.3179C109.96 48.7421 110.202 50.0153 110.686 51.1374C111.17 52.2451 111.84 53.1082 112.694 53.7268C113.562 54.3311 114.53 54.6332 115.598 54.6332C116.181 54.6332 116.63 54.5684 116.943 54.4389C117.256 54.3095 117.484 54.0577 117.626 53.6837C117.769 53.3096 117.84 52.7558 117.84 52.0221C117.84 51.274 117.797 50.7561 117.712 50.4684C117.626 50.1663 117.441 49.9649 117.156 49.8642C116.886 49.7635 116.409 49.7131 115.726 49.7131C115.64 49.7131 115.598 49.6556 115.598 49.5405C115.598 49.4974 115.605 49.4614 115.619 49.4326C115.648 49.3895 115.676 49.3679 115.704 49.3679C116.914 49.4398 117.89 49.4758 118.63 49.4758C119.356 49.4758 120.11 49.4542 120.893 49.411C120.922 49.411 120.943 49.4326 120.957 49.4758C120.986 49.5045 121 49.5333 121 49.5621C121 49.6628 120.964 49.7131 120.893 49.7131C120.637 49.6988 120.459 49.7491 120.359 49.8642C120.26 49.9649 120.196 50.1807 120.167 50.5116C120.139 50.8281 120.125 51.4035 120.125 52.2379C120.125 52.8853 120.146 53.3456 120.189 53.6189C120.246 53.8923 120.274 54.0649 120.274 54.1368C120.274 54.2232 120.253 54.2807 120.21 54.3095C120.181 54.3382 120.117 54.367 120.018 54.3958C118.181 54.7986 116.53 55 115.064 55Z"/>
<path d="M87.5711 17.6539H117.932V18.9323H87.5711V17.6539Z"/>
<path d="M5.3433 17.6539H34.4393V18.9323H5.3433V17.6539Z"/>
</mask>
<path d="M71.1029 21.8108C71.1029 22.235 71.4432 22.5789 71.8629 22.5789H73.257C73.6767 22.5789 74.017 22.235 74.017 21.8108C74.017 21.3867 73.6767 21.0428 73.257 21.0428H71.8629C71.4432 21.0428 71.1029 21.3867 71.1029 21.8108Z" />
<path d="M81.0555 25.9739C80.8991 25.9739 80.746 25.988 80.5967 26.0137L75.5876 17.6152C75.6077 17.5905 75.627 17.5646 75.6443 17.5369L79.0081 12.1378C79.1476 11.914 79.1632 11.6333 79.0496 11.3951C78.936 11.1568 78.709 10.9943 78.4489 10.9651L72.9302 10.3458L73.5568 4.77066C73.5863 4.50808 73.4803 4.24857 73.2757 4.08367C73.0715 3.91886 72.7975 3.87169 72.5506 3.95907L67.3098 5.81312L65.4798 0.514987C65.3935 0.265238 65.1863 0.077926 64.9311 0.0191934C64.6761 -0.0393585 64.4087 0.0385302 64.224 0.225842L60.3032 4.20023L56.3824 0.225842C56.1976 0.0385302 55.9304 -0.0395392 55.6754 0.0191934C55.4202 0.077926 55.2129 0.265328 55.1266 0.514897L53.2967 5.81303L48.0558 3.95907C47.8088 3.87178 47.535 3.91877 47.3306 4.08367C47.1262 4.24848 47.02 4.50799 47.0495 4.77066L47.6761 10.3458L42.1575 10.9652C41.8973 10.9944 41.6704 11.1569 41.5567 11.3952C41.4431 11.6334 41.4587 11.914 41.5982 12.1379L44.5566 16.8862L39.8552 19.8699C39.6338 20.0104 39.4994 20.2561 39.4994 20.5203C39.4994 20.7845 39.6338 21.0301 39.8552 21.1707L44.5567 24.1545L41.5983 28.9028C41.4509 29.1394 41.4424 29.4382 41.5759 29.6829C41.7094 29.9276 41.964 30.0798 42.2406 30.0802L78.7147 30.1216C79.1891 30.9295 80.0606 31.4725 81.0556 31.4725C82.5556 31.4725 83.7761 30.2392 83.7761 28.7232C83.7759 27.2071 82.5555 25.9739 81.0555 25.9739ZM78.3385 28.5851L64.7878 28.5697C62.9935 22.4277 67.437 17.651 72.6207 15.6166L79.2255 26.6905C78.7102 27.1648 78.3754 27.8359 78.3385 28.5851ZM46.2483 24.3223C46.3558 24.1498 46.391 23.9412 46.3462 23.7424C46.3013 23.5437 46.1803 23.3711 46.0094 23.2626L41.6885 20.5202L46.0094 17.7779C46.1803 17.6694 46.3014 17.4968 46.3462 17.2981C46.3911 17.0993 46.3558 16.8906 46.2483 16.7181L43.5308 12.3565L48.6011 11.7874C48.8018 11.7649 48.9853 11.6625 49.1113 11.5031C49.2373 11.3437 49.2952 11.1401 49.2724 10.9374L48.6965 5.81303L53.5123 7.51673C53.7026 7.58404 53.9116 7.57203 54.0934 7.48375C54.2751 7.3952 54.4145 7.23734 54.481 7.04506L56.1621 2.17811L59.765 5.83029C59.9076 5.97486 60.1012 6.05609 60.3032 6.05609C60.5052 6.05609 60.6989 5.97486 60.8415 5.83029L64.4444 2.17811L66.1254 7.04506C66.1919 7.23752 66.3314 7.39538 66.513 7.48384C66.6946 7.5723 66.9038 7.58422 67.0941 7.51682L71.91 5.81312L71.3341 10.9375C71.3113 11.1402 71.3693 11.3437 71.4952 11.5032C71.6211 11.6628 71.8047 11.765 72.0053 11.7875L77.0757 12.3565L74.713 16.1485L73.5989 14.2806C73.4135 13.9699 73.0382 13.8328 72.6993 13.9513C69.2141 15.1709 66.3513 17.3009 64.6386 19.9491C62.9329 22.5865 62.447 25.547 63.2108 28.5677L43.6173 28.5454L46.2483 24.3223ZM81.0555 29.9363C80.3936 29.9363 79.855 29.3921 79.855 28.7231C79.855 28.0541 80.3936 27.5098 81.0555 27.5098C81.7174 27.5098 82.256 28.0541 82.256 28.7231C82.256 29.3921 81.7174 29.9363 81.0555 29.9363Z" />
<path d="M19.0325 54.4821C19.0752 54.4821 19.0966 54.5253 19.0966 54.6116C19.0966 54.6979 19.0752 54.7411 19.0325 54.7411C18.5343 54.7411 18.1357 54.7339 17.8368 54.7195L16.1926 54.6979L14.2708 54.7195C14.0146 54.7339 13.6658 54.7411 13.2245 54.7411C13.1818 54.7411 13.1605 54.6979 13.1605 54.6116C13.1605 54.5253 13.1818 54.4821 13.2245 54.4821C13.7512 54.4821 14.1356 54.4461 14.3776 54.3742C14.6196 54.3023 14.7833 54.1656 14.8687 53.9642C14.9541 53.7628 14.9968 53.4391 14.9968 52.9932V48.03H8.09978V52.9932C8.09978 53.4247 8.14249 53.7484 8.2279 53.9642C8.31332 54.1656 8.47702 54.3023 8.71902 54.3742C8.96102 54.4461 9.34538 54.4821 9.87209 54.4821C9.90056 54.4821 9.91479 54.5253 9.91479 54.6116C9.91479 54.6979 9.90056 54.7411 9.87209 54.7411C9.37385 54.7411 8.97526 54.7339 8.67632 54.7195L6.8186 54.6979L5.21712 54.7195C4.93242 54.7339 4.54094 54.7411 4.04271 54.7411C4.01424 54.7411 4 54.6979 4 54.6116C4 54.5253 4.01424 54.4821 4.04271 54.4821C4.54094 54.4821 4.90395 54.4461 5.13171 54.3742C5.35948 54.3023 5.51607 54.1656 5.60148 53.9642C5.68689 53.7484 5.7296 53.4247 5.7296 52.9932V43.0021C5.7296 42.5705 5.68689 42.254 5.60148 42.0526C5.51607 41.8512 5.35948 41.7145 5.13171 41.6426C4.91818 41.5563 4.56941 41.5131 4.08541 41.5131C4.04271 41.5131 4.02135 41.47 4.02135 41.3836C4.02135 41.2973 4.04271 41.2542 4.08541 41.2542L5.23848 41.2758C5.8933 41.3045 6.42001 41.3189 6.8186 41.3189C7.35955 41.3189 7.9859 41.3045 8.69767 41.2758L9.87209 41.2542C9.90056 41.2542 9.91479 41.2973 9.91479 41.3836C9.91479 41.47 9.90056 41.5131 9.87209 41.5131C9.35961 41.5131 8.98238 41.5563 8.74038 41.6426C8.49837 41.7289 8.32755 41.88 8.2279 42.0958C8.14249 42.2972 8.09978 42.6137 8.09978 43.0452V47.4258H14.9968V43.0452C14.9968 42.6137 14.9541 42.2972 14.8687 42.0958C14.7833 41.88 14.6196 41.7289 14.3776 41.6426C14.1356 41.5563 13.7512 41.5131 13.2245 41.5131C13.1818 41.5131 13.1605 41.47 13.1605 41.3836C13.1605 41.2973 13.1818 41.2542 13.2245 41.2542L14.2708 41.2758C14.9826 41.3045 15.6232 41.3189 16.1926 41.3189C16.5769 41.3189 17.125 41.3045 17.8368 41.2758L19.0325 41.2542C19.0752 41.2542 19.0966 41.2973 19.0966 41.3836C19.0966 41.47 19.0752 41.5131 19.0325 41.5131C18.5485 41.5131 18.1855 41.5563 17.9435 41.6426C17.7158 41.7145 17.5592 41.8512 17.4738 42.0526C17.4026 42.254 17.367 42.5705 17.367 43.0021V52.9932C17.367 53.4247 17.4026 53.7484 17.4738 53.9642C17.5592 54.1656 17.7158 54.3023 17.9435 54.3742C18.1713 54.4461 18.5343 54.4821 19.0325 54.4821Z" />
<path d="M30.2999 51.31C30.2999 51.2812 30.3284 51.2668 30.3854 51.2668C30.4281 51.2668 30.4636 51.2812 30.4921 51.31C30.5348 51.3244 30.5562 51.3388 30.5562 51.3531C30.4138 52.4753 30.3426 53.4967 30.3426 54.4174C30.3426 54.5325 30.3213 54.6188 30.2786 54.6763C30.2359 54.7195 30.1505 54.7411 30.0224 54.7411H20.5843C20.5416 54.7411 20.5202 54.6979 20.5202 54.6116C20.5202 54.5253 20.5416 54.4821 20.5843 54.4821C21.0398 54.4821 21.3673 54.4461 21.5665 54.3742C21.7801 54.3023 21.9224 54.1656 21.9936 53.9642C22.0648 53.7484 22.1004 53.4247 22.1004 52.9932V43.0021C22.1004 42.5705 22.0648 42.254 21.9936 42.0526C21.9224 41.8512 21.7801 41.7145 21.5665 41.6426C21.353 41.5563 21.0256 41.5131 20.5843 41.5131C20.5416 41.5131 20.5202 41.47 20.5202 41.3836C20.5202 41.2973 20.5416 41.2542 20.5843 41.2542H29.638C29.7804 41.2542 29.8515 41.3189 29.8515 41.4484L29.8942 44.3184C29.8942 44.3472 29.8515 44.3687 29.7661 44.3831C29.6949 44.3975 29.6522 44.3831 29.638 44.34C29.4102 43.5056 29.0259 42.887 28.4849 42.4842C27.944 42.0814 27.2322 41.88 26.3496 41.88H25.709C25.282 41.88 24.9688 41.9735 24.7695 42.1605C24.5702 42.3475 24.4706 42.6352 24.4706 43.0237V47.4258H26.2429C27.0685 47.4258 27.702 47.2819 28.1433 46.9942C28.5846 46.7065 28.8052 46.3037 28.8052 45.7858C28.8052 45.7426 28.8408 45.721 28.912 45.721C28.9974 45.721 29.0401 45.7426 29.0401 45.7858L29.0188 47.7279L29.0401 48.7637C29.0686 49.2528 29.0828 49.6412 29.0828 49.9289C29.0828 49.9577 29.0401 49.9721 28.9547 49.9721C28.8693 49.9721 28.8266 49.9577 28.8266 49.9289C28.8266 49.3391 28.5988 48.8788 28.1433 48.5479C27.702 48.2026 27.0614 48.03 26.2215 48.03H24.4706V52.9068C24.4706 53.324 24.5489 53.6333 24.7054 53.8347C24.862 54.0361 25.1112 54.1368 25.4528 54.1368H26.1575C27.2678 54.1368 28.1575 53.9067 28.8266 53.4463C29.4956 52.986 29.9868 52.2739 30.2999 51.31Z" />
<path d="M38.4516 54.8274C37.9961 54.8274 37.4552 54.8058 36.8288 54.7626C36.601 54.7482 36.3163 54.7339 35.9747 54.7195C35.6473 54.7051 35.2771 54.6979 34.8643 54.6979L33.2842 54.7195C32.9995 54.7339 32.6151 54.7411 32.1311 54.7411C32.1027 54.7411 32.0884 54.6979 32.0884 54.6116C32.0884 54.5253 32.1027 54.4821 32.1311 54.4821C32.5867 54.4821 32.9212 54.4461 33.1347 54.3742C33.3483 54.3023 33.4906 54.1656 33.5618 53.9642C33.6472 53.7484 33.6899 53.4247 33.6899 52.9932V43.0021C33.6899 42.5705 33.6472 42.254 33.5618 42.0526C33.4906 41.8512 33.3483 41.7145 33.1347 41.6426C32.9354 41.5563 32.6151 41.5131 32.1738 41.5131C32.1311 41.5131 32.1098 41.47 32.1098 41.3836C32.1098 41.2973 32.1311 41.2542 32.1738 41.2542L33.3056 41.2758C33.9604 41.3045 34.48 41.3189 34.8643 41.3189C35.448 41.3189 36.0459 41.2973 36.658 41.2542C37.3982 41.2254 37.8965 41.211 38.1527 41.211C39.5905 41.211 40.8645 41.4987 41.9749 42.0742C43.0995 42.6496 43.9678 43.4337 44.58 44.4263C45.1921 45.4189 45.4981 46.5338 45.4981 47.771C45.4981 49.1665 45.1778 50.4037 44.5373 51.4826C43.9109 52.5472 43.0568 53.3744 41.9749 53.9642C40.9072 54.5396 39.7328 54.8274 38.4516 54.8274ZM38.2381 54.3311C39.1492 54.3311 39.9535 54.1009 40.651 53.6405C41.3485 53.1658 41.8895 52.4681 42.2738 51.5474C42.6724 50.6267 42.8717 49.5261 42.8717 48.2458C42.8717 47.023 42.6867 45.9152 42.3165 44.9226C41.9464 43.9156 41.4197 43.1244 40.7364 42.5489C40.0531 41.9735 39.2631 41.6858 38.3662 41.6858C37.4836 41.6858 36.8786 41.7721 36.5512 41.9447C36.2238 42.1173 36.0601 42.4842 36.0601 43.0452V52.7558C36.0601 53.3312 36.2096 53.7412 36.5085 53.9858C36.8075 54.216 37.384 54.3311 38.2381 54.3311Z" />
<path d="M55.2795 55C53.7136 55 52.347 54.6979 51.1797 54.0937C50.0124 53.4895 49.1227 52.6695 48.5106 51.6337C47.8985 50.5835 47.5924 49.4182 47.5924 48.1379C47.5924 46.7568 47.9412 45.5268 48.6387 44.4479C49.3505 43.3545 50.3185 42.5129 51.5427 41.9231C52.7812 41.3189 54.162 41.0168 55.6852 41.0168C56.3543 41.0168 57.0305 41.0743 57.7137 41.1894C58.397 41.2901 58.9451 41.4268 59.3579 41.5994C59.4861 41.6426 59.5643 41.7001 59.5928 41.7721C59.6355 41.8296 59.664 41.9375 59.6782 42.0958L59.9558 45.0952C59.9558 45.1384 59.9202 45.1672 59.8491 45.1815C59.7779 45.1959 59.7281 45.1744 59.6996 45.1168C59.2013 44.0091 58.5109 43.1459 57.6283 42.5273C56.76 41.9087 55.7635 41.5994 54.6389 41.5994C53.1869 41.5994 52.0765 42.1101 51.3078 43.1315C50.5534 44.153 50.1761 45.5484 50.1761 47.3179C50.1761 48.7421 50.4181 50.0153 50.9021 51.1374C51.3861 52.2451 52.0552 53.1082 52.9093 53.7268C53.7777 54.3311 54.7457 54.6332 55.8133 54.6332C56.397 54.6332 56.8454 54.5684 57.1586 54.4389C57.4717 54.3095 57.6995 54.0577 57.8419 53.6837C57.9842 53.3096 58.0554 52.7558 58.0554 52.0221C58.0554 51.274 58.0127 50.7561 57.9273 50.4684C57.8419 50.1663 57.6568 49.9649 57.3721 49.8642C57.1016 49.7635 56.6247 49.7131 55.9414 49.7131C55.856 49.7131 55.8133 49.6556 55.8133 49.5405C55.8133 49.4974 55.8204 49.4614 55.8347 49.4326C55.8632 49.3895 55.8916 49.3679 55.9201 49.3679C57.1301 49.4398 58.1052 49.4758 58.8455 49.4758C59.5715 49.4758 60.3259 49.4542 61.1089 49.411C61.1374 49.411 61.1587 49.4326 61.1729 49.4758C61.2014 49.5045 61.2156 49.5333 61.2156 49.5621C61.2156 49.6628 61.1801 49.7131 61.1089 49.7131C60.8526 49.6988 60.6747 49.7491 60.5751 49.8642C60.4754 49.9649 60.4114 50.1807 60.3829 50.5116C60.3544 50.8281 60.3402 51.4035 60.3402 52.2379C60.3402 52.8853 60.3615 53.3456 60.4042 53.6189C60.4612 53.8923 60.4896 54.0649 60.4896 54.1368C60.4896 54.2232 60.4683 54.2807 60.4256 54.3095C60.3971 54.3382 60.3331 54.367 60.2334 54.3958C58.397 54.7986 56.7457 55 55.2795 55Z" />
<path d="M72.4847 51.31C72.4847 51.2812 72.5132 51.2668 72.5701 51.2668C72.6128 51.2668 72.6484 51.2812 72.6769 51.31C72.7196 51.3244 72.741 51.3388 72.741 51.3531C72.5986 52.4753 72.5274 53.4967 72.5274 54.4174C72.5274 54.5325 72.5061 54.6188 72.4634 54.6763C72.4207 54.7195 72.3353 54.7411 72.2071 54.7411H62.7691C62.7264 54.7411 62.705 54.6979 62.705 54.6116C62.705 54.5253 62.7264 54.4821 62.7691 54.4821C63.2246 54.4821 63.552 54.4461 63.7513 54.3742C63.9649 54.3023 64.1072 54.1656 64.1784 53.9642C64.2496 53.7484 64.2851 53.4247 64.2851 52.9932V43.0021C64.2851 42.5705 64.2496 42.254 64.1784 42.0526C64.1072 41.8512 63.9649 41.7145 63.7513 41.6426C63.5378 41.5563 63.2104 41.5131 62.7691 41.5131C62.7264 41.5131 62.705 41.47 62.705 41.3836C62.705 41.2973 62.7264 41.2542 62.7691 41.2542H71.8228C71.9651 41.2542 72.0363 41.3189 72.0363 41.4484L72.079 44.3184C72.079 44.3472 72.0363 44.3687 71.9509 44.3831C71.8797 44.3975 71.837 44.3831 71.8228 44.34C71.595 43.5056 71.2107 42.887 70.6697 42.4842C70.1288 42.0814 69.417 41.88 68.5344 41.88H67.8938C67.4668 41.88 67.1536 41.9735 66.9543 42.1605C66.755 42.3475 66.6553 42.6352 66.6553 43.0237V47.4258H68.4276C69.2533 47.4258 69.8868 47.2819 70.3281 46.9942C70.7694 46.7065 70.99 46.3037 70.99 45.7858C70.99 45.7426 71.0256 45.721 71.0968 45.721C71.1822 45.721 71.2249 45.7426 71.2249 45.7858L71.2035 47.7279L71.2249 48.7637C71.2534 49.2528 71.2676 49.6412 71.2676 49.9289C71.2676 49.9577 71.2249 49.9721 71.1395 49.9721C71.0541 49.9721 71.0114 49.9577 71.0114 49.9289C71.0114 49.3391 70.7836 48.8788 70.3281 48.5479C69.8868 48.2026 69.2462 48.03 68.4063 48.03H66.6553V52.9068C66.6553 53.324 66.7336 53.6333 66.8902 53.8347C67.0468 54.0361 67.2959 54.1368 67.6376 54.1368H68.3422C69.4526 54.1368 70.3423 53.9067 71.0114 53.4463C71.6804 52.986 72.1715 52.2739 72.4847 51.31Z" />
<path d="M89.3057 54.4821C89.3484 54.4821 89.3698 54.5253 89.3698 54.6116C89.3698 54.6979 89.3484 54.7411 89.3057 54.7411C88.8075 54.7411 88.4089 54.7339 88.11 54.7195L86.4658 54.6979L84.544 54.7195C84.2878 54.7339 83.939 54.7411 83.4977 54.7411C83.455 54.7411 83.4337 54.6979 83.4337 54.6116C83.4337 54.5253 83.455 54.4821 83.4977 54.4821C84.0244 54.4821 84.4088 54.4461 84.6508 54.3742C84.8928 54.3023 85.0565 54.1656 85.1419 53.9642C85.2273 53.7628 85.27 53.4391 85.27 52.9932V48.03H78.373V52.9932C78.373 53.4247 78.4157 53.7484 78.5011 53.9642C78.5865 54.1656 78.7502 54.3023 78.9922 54.3742C79.2342 54.4461 79.6186 54.4821 80.1453 54.4821C80.1738 54.4821 80.188 54.5253 80.188 54.6116C80.188 54.6979 80.1738 54.7411 80.1453 54.7411C79.6471 54.7411 79.2485 54.7339 78.9495 54.7195L77.0918 54.6979L75.4903 54.7195C75.2056 54.7339 74.8141 54.7411 74.3159 54.7411C74.2874 54.7411 74.2732 54.6979 74.2732 54.6116C74.2732 54.5253 74.2874 54.4821 74.3159 54.4821C74.8141 54.4821 75.1771 54.4461 75.4049 54.3742C75.6327 54.3023 75.7893 54.1656 75.8747 53.9642C75.9601 53.7484 76.0028 53.4247 76.0028 52.9932V43.0021C76.0028 42.5705 75.9601 42.254 75.8747 42.0526C75.7893 41.8512 75.6327 41.7145 75.4049 41.6426C75.1914 41.5563 74.8426 41.5131 74.3586 41.5131C74.3159 41.5131 74.2946 41.47 74.2946 41.3836C74.2946 41.2973 74.3159 41.2542 74.3586 41.2542L75.5117 41.2758C76.1665 41.3045 76.6932 41.3189 77.0918 41.3189C77.6327 41.3189 78.2591 41.3045 78.9709 41.2758L80.1453 41.2542C80.1738 41.2542 80.188 41.2973 80.188 41.3836C80.188 41.47 80.1738 41.5131 80.1453 41.5131C79.6328 41.5131 79.2556 41.5563 79.0136 41.6426C78.7716 41.7289 78.6008 41.88 78.5011 42.0958C78.4157 42.2972 78.373 42.6137 78.373 43.0452V47.4258H85.27V43.0452C85.27 42.6137 85.2273 42.2972 85.1419 42.0958C85.0565 41.88 84.8928 41.7289 84.6508 41.6426C84.4088 41.5563 84.0244 41.5131 83.4977 41.5131C83.455 41.5131 83.4337 41.47 83.4337 41.3836C83.4337 41.2973 83.455 41.2542 83.4977 41.2542L84.544 41.2758C85.2558 41.3045 85.8964 41.3189 86.4658 41.3189C86.8502 41.3189 87.3982 41.3045 88.11 41.2758L89.3057 41.2542C89.3484 41.2542 89.3698 41.2973 89.3698 41.3836C89.3698 41.47 89.3484 41.5131 89.3057 41.5131C88.8217 41.5131 88.4587 41.5563 88.2167 41.6426C87.989 41.7145 87.8324 41.8512 87.747 42.0526C87.6758 42.254 87.6402 42.5705 87.6402 43.0021V52.9932C87.6402 53.4247 87.6758 53.7484 87.747 53.9642C87.8324 54.1656 87.989 54.3023 88.2167 54.3742C88.4445 54.4461 88.8075 54.4821 89.3057 54.4821Z" />
<path d="M97.7972 55C96.4734 55 95.2918 54.6907 94.2526 54.0721C93.2277 53.4391 92.4305 52.5903 91.8611 51.5258C91.3059 50.4468 91.0283 49.2744 91.0283 48.0084C91.0283 46.5266 91.3985 45.2607 92.1387 44.2105C92.8789 43.1459 93.8256 42.3475 94.9786 41.8152C96.1459 41.2829 97.3346 41.0168 98.5446 41.0168C99.897 41.0168 101.086 41.3405 102.111 41.9879C103.136 42.6208 103.918 43.4624 104.459 44.5126C105.015 45.5628 105.292 46.6777 105.292 47.8573C105.292 49.1665 104.951 50.3677 104.267 51.461C103.584 52.5544 102.666 53.4175 101.513 54.0505C100.374 54.6835 99.1354 55 97.7972 55ZM98.5019 54.4605C99.2991 54.4605 100.011 54.2303 100.637 53.77C101.278 53.2953 101.776 52.6119 102.132 51.72C102.488 50.8137 102.666 49.7347 102.666 48.4831C102.666 47.1596 102.466 45.98 102.068 44.9442C101.669 43.894 101.093 43.074 100.338 42.4842C99.5838 41.8943 98.7012 41.5994 97.6905 41.5994C96.3951 41.5994 95.3986 42.0958 94.7011 43.0884C94.0035 44.0666 93.6548 45.4405 93.6548 47.21C93.6548 48.6054 93.8612 49.857 94.274 50.9647C94.7011 52.0581 95.2776 52.914 96.0036 53.5326C96.7438 54.1512 97.5766 54.4605 98.5019 54.4605Z" />
<path d="M115.064 55C113.498 55 112.131 54.6979 110.964 54.0937C109.797 53.4895 108.907 52.6695 108.295 51.6337C107.683 50.5835 107.377 49.4182 107.377 48.1379C107.377 46.7568 107.726 45.5268 108.423 44.4479C109.135 43.3545 110.103 42.5129 111.327 41.9231C112.566 41.3189 113.946 41.0168 115.47 41.0168C116.139 41.0168 116.815 41.0743 117.498 41.1894C118.181 41.2901 118.729 41.4268 119.142 41.5994C119.27 41.6426 119.349 41.7001 119.377 41.7721C119.42 41.8296 119.448 41.9375 119.463 42.0958L119.74 45.0952C119.74 45.1384 119.705 45.1672 119.633 45.1815C119.562 45.1959 119.512 45.1744 119.484 45.1168C118.986 44.0091 118.295 43.1459 117.413 42.5273C116.544 41.9087 115.548 41.5994 114.423 41.5994C112.971 41.5994 111.861 42.1101 111.092 43.1315C110.338 44.153 109.96 45.5484 109.96 47.3179C109.96 48.7421 110.202 50.0153 110.686 51.1374C111.17 52.2451 111.84 53.1082 112.694 53.7268C113.562 54.3311 114.53 54.6332 115.598 54.6332C116.181 54.6332 116.63 54.5684 116.943 54.4389C117.256 54.3095 117.484 54.0577 117.626 53.6837C117.769 53.3096 117.84 52.7558 117.84 52.0221C117.84 51.274 117.797 50.7561 117.712 50.4684C117.626 50.1663 117.441 49.9649 117.156 49.8642C116.886 49.7635 116.409 49.7131 115.726 49.7131C115.64 49.7131 115.598 49.6556 115.598 49.5405C115.598 49.4974 115.605 49.4614 115.619 49.4326C115.648 49.3895 115.676 49.3679 115.704 49.3679C116.914 49.4398 117.89 49.4758 118.63 49.4758C119.356 49.4758 120.11 49.4542 120.893 49.411C120.922 49.411 120.943 49.4326 120.957 49.4758C120.986 49.5045 121 49.5333 121 49.5621C121 49.6628 120.964 49.7131 120.893 49.7131C120.637 49.6988 120.459 49.7491 120.359 49.8642C120.26 49.9649 120.196 50.1807 120.167 50.5116C120.139 50.8281 120.125 51.4035 120.125 52.2379C120.125 52.8853 120.146 53.3456 120.189 53.6189C120.246 53.8923 120.274 54.0649 120.274 54.1368C120.274 54.2232 120.253 54.2807 120.21 54.3095C120.181 54.3382 120.117 54.367 120.018 54.3958C118.181 54.7986 116.53 55 115.064 55Z" />
<path d="M87.5711 17.6539H117.932V18.9323H87.5711V17.6539Z" />
<path d="M5.3433 17.6539H34.4393V18.9323H5.3433V17.6539Z" />
<path d="M71.1029 21.8108C71.1029 22.235 71.4432 22.5789 71.8629 22.5789H73.257C73.6767 22.5789 74.017 22.235 74.017 21.8108C74.017 21.3867 73.6767 21.0428 73.257 21.0428H71.8629C71.4432 21.0428 71.1029 21.3867 71.1029 21.8108Z" stroke="black" stroke-width="2" mask="url(#path-1-inside-1)"/>
<path d="M81.0555 25.9739C80.8991 25.9739 80.746 25.988 80.5967 26.0137L75.5876 17.6152C75.6077 17.5905 75.627 17.5646 75.6443 17.5369L79.0081 12.1378C79.1476 11.914 79.1632 11.6333 79.0496 11.3951C78.936 11.1568 78.709 10.9943 78.4489 10.9651L72.9302 10.3458L73.5568 4.77066C73.5863 4.50808 73.4803 4.24857 73.2757 4.08367C73.0715 3.91886 72.7975 3.87169 72.5506 3.95907L67.3098 5.81312L65.4798 0.514987C65.3935 0.265238 65.1863 0.077926 64.9311 0.0191934C64.6761 -0.0393585 64.4087 0.0385302 64.224 0.225842L60.3032 4.20023L56.3824 0.225842C56.1976 0.0385302 55.9304 -0.0395392 55.6754 0.0191934C55.4202 0.077926 55.2129 0.265328 55.1266 0.514897L53.2967 5.81303L48.0558 3.95907C47.8088 3.87178 47.535 3.91877 47.3306 4.08367C47.1262 4.24848 47.02 4.50799 47.0495 4.77066L47.6761 10.3458L42.1575 10.9652C41.8973 10.9944 41.6704 11.1569 41.5567 11.3952C41.4431 11.6334 41.4587 11.914 41.5982 12.1379L44.5566 16.8862L39.8552 19.8699C39.6338 20.0104 39.4994 20.2561 39.4994 20.5203C39.4994 20.7845 39.6338 21.0301 39.8552 21.1707L44.5567 24.1545L41.5983 28.9028C41.4509 29.1394 41.4424 29.4382 41.5759 29.6829C41.7094 29.9276 41.964 30.0798 42.2406 30.0802L78.7147 30.1216C79.1891 30.9295 80.0606 31.4725 81.0556 31.4725C82.5556 31.4725 83.7761 30.2392 83.7761 28.7232C83.7759 27.2071 82.5555 25.9739 81.0555 25.9739ZM78.3385 28.5851L64.7878 28.5697C62.9935 22.4277 67.437 17.651 72.6207 15.6166L79.2255 26.6905C78.7102 27.1648 78.3754 27.8359 78.3385 28.5851ZM46.2483 24.3223C46.3558 24.1498 46.391 23.9412 46.3462 23.7424C46.3013 23.5437 46.1803 23.3711 46.0094 23.2626L41.6885 20.5202L46.0094 17.7779C46.1803 17.6694 46.3014 17.4968 46.3462 17.2981C46.3911 17.0993 46.3558 16.8906 46.2483 16.7181L43.5308 12.3565L48.6011 11.7874C48.8018 11.7649 48.9853 11.6625 49.1113 11.5031C49.2373 11.3437 49.2952 11.1401 49.2724 10.9374L48.6965 5.81303L53.5123 7.51673C53.7026 7.58404 53.9116 7.57203 54.0934 7.48375C54.2751 7.3952 54.4145 7.23734 54.481 7.04506L56.1621 2.17811L59.765 5.83029C59.9076 5.97486 60.1012 6.05609 60.3032 6.05609C60.5052 6.05609 60.6989 5.97486 60.8415 5.83029L64.4444 2.17811L66.1254 7.04506C66.1919 7.23752 66.3314 7.39538 66.513 7.48384C66.6946 7.5723 66.9038 7.58422 67.0941 7.51682L71.91 5.81312L71.3341 10.9375C71.3113 11.1402 71.3693 11.3437 71.4952 11.5032C71.6211 11.6628 71.8047 11.765 72.0053 11.7875L77.0757 12.3565L74.713 16.1485L73.5989 14.2806C73.4135 13.9699 73.0382 13.8328 72.6993 13.9513C69.2141 15.1709 66.3513 17.3009 64.6386 19.9491C62.9329 22.5865 62.447 25.547 63.2108 28.5677L43.6173 28.5454L46.2483 24.3223ZM81.0555 29.9363C80.3936 29.9363 79.855 29.3921 79.855 28.7231C79.855 28.0541 80.3936 27.5098 81.0555 27.5098C81.7174 27.5098 82.256 28.0541 82.256 28.7231C82.256 29.3921 81.7174 29.9363 81.0555 29.9363Z" stroke="black" stroke-width="2" mask="url(#path-1-inside-1)"/>
<path d="M19.0325 54.4821C19.0752 54.4821 19.0966 54.5253 19.0966 54.6116C19.0966 54.6979 19.0752 54.7411 19.0325 54.7411C18.5343 54.7411 18.1357 54.7339 17.8368 54.7195L16.1926 54.6979L14.2708 54.7195C14.0146 54.7339 13.6658 54.7411 13.2245 54.7411C13.1818 54.7411 13.1605 54.6979 13.1605 54.6116C13.1605 54.5253 13.1818 54.4821 13.2245 54.4821C13.7512 54.4821 14.1356 54.4461 14.3776 54.3742C14.6196 54.3023 14.7833 54.1656 14.8687 53.9642C14.9541 53.7628 14.9968 53.4391 14.9968 52.9932V48.03H8.09978V52.9932C8.09978 53.4247 8.14249 53.7484 8.2279 53.9642C8.31332 54.1656 8.47702 54.3023 8.71902 54.3742C8.96102 54.4461 9.34538 54.4821 9.87209 54.4821C9.90056 54.4821 9.91479 54.5253 9.91479 54.6116C9.91479 54.6979 9.90056 54.7411 9.87209 54.7411C9.37385 54.7411 8.97526 54.7339 8.67632 54.7195L6.8186 54.6979L5.21712 54.7195C4.93242 54.7339 4.54094 54.7411 4.04271 54.7411C4.01424 54.7411 4 54.6979 4 54.6116C4 54.5253 4.01424 54.4821 4.04271 54.4821C4.54094 54.4821 4.90395 54.4461 5.13171 54.3742C5.35948 54.3023 5.51607 54.1656 5.60148 53.9642C5.68689 53.7484 5.7296 53.4247 5.7296 52.9932V43.0021C5.7296 42.5705 5.68689 42.254 5.60148 42.0526C5.51607 41.8512 5.35948 41.7145 5.13171 41.6426C4.91818 41.5563 4.56941 41.5131 4.08541 41.5131C4.04271 41.5131 4.02135 41.47 4.02135 41.3836C4.02135 41.2973 4.04271 41.2542 4.08541 41.2542L5.23848 41.2758C5.8933 41.3045 6.42001 41.3189 6.8186 41.3189C7.35955 41.3189 7.9859 41.3045 8.69767 41.2758L9.87209 41.2542C9.90056 41.2542 9.91479 41.2973 9.91479 41.3836C9.91479 41.47 9.90056 41.5131 9.87209 41.5131C9.35961 41.5131 8.98238 41.5563 8.74038 41.6426C8.49837 41.7289 8.32755 41.88 8.2279 42.0958C8.14249 42.2972 8.09978 42.6137 8.09978 43.0452V47.4258H14.9968V43.0452C14.9968 42.6137 14.9541 42.2972 14.8687 42.0958C14.7833 41.88 14.6196 41.7289 14.3776 41.6426C14.1356 41.5563 13.7512 41.5131 13.2245 41.5131C13.1818 41.5131 13.1605 41.47 13.1605 41.3836C13.1605 41.2973 13.1818 41.2542 13.2245 41.2542L14.2708 41.2758C14.9826 41.3045 15.6232 41.3189 16.1926 41.3189C16.5769 41.3189 17.125 41.3045 17.8368 41.2758L19.0325 41.2542C19.0752 41.2542 19.0966 41.2973 19.0966 41.3836C19.0966 41.47 19.0752 41.5131 19.0325 41.5131C18.5485 41.5131 18.1855 41.5563 17.9435 41.6426C17.7158 41.7145 17.5592 41.8512 17.4738 42.0526C17.4026 42.254 17.367 42.5705 17.367 43.0021V52.9932C17.367 53.4247 17.4026 53.7484 17.4738 53.9642C17.5592 54.1656 17.7158 54.3023 17.9435 54.3742C18.1713 54.4461 18.5343 54.4821 19.0325 54.4821Z" stroke="black" stroke-width="2" mask="url(#path-1-inside-1)"/>
<path d="M30.2999 51.31C30.2999 51.2812 30.3284 51.2668 30.3854 51.2668C30.4281 51.2668 30.4636 51.2812 30.4921 51.31C30.5348 51.3244 30.5562 51.3388 30.5562 51.3531C30.4138 52.4753 30.3426 53.4967 30.3426 54.4174C30.3426 54.5325 30.3213 54.6188 30.2786 54.6763C30.2359 54.7195 30.1505 54.7411 30.0224 54.7411H20.5843C20.5416 54.7411 20.5202 54.6979 20.5202 54.6116C20.5202 54.5253 20.5416 54.4821 20.5843 54.4821C21.0398 54.4821 21.3673 54.4461 21.5665 54.3742C21.7801 54.3023 21.9224 54.1656 21.9936 53.9642C22.0648 53.7484 22.1004 53.4247 22.1004 52.9932V43.0021C22.1004 42.5705 22.0648 42.254 21.9936 42.0526C21.9224 41.8512 21.7801 41.7145 21.5665 41.6426C21.353 41.5563 21.0256 41.5131 20.5843 41.5131C20.5416 41.5131 20.5202 41.47 20.5202 41.3836C20.5202 41.2973 20.5416 41.2542 20.5843 41.2542H29.638C29.7804 41.2542 29.8515 41.3189 29.8515 41.4484L29.8942 44.3184C29.8942 44.3472 29.8515 44.3687 29.7661 44.3831C29.6949 44.3975 29.6522 44.3831 29.638 44.34C29.4102 43.5056 29.0259 42.887 28.4849 42.4842C27.944 42.0814 27.2322 41.88 26.3496 41.88H25.709C25.282 41.88 24.9688 41.9735 24.7695 42.1605C24.5702 42.3475 24.4706 42.6352 24.4706 43.0237V47.4258H26.2429C27.0685 47.4258 27.702 47.2819 28.1433 46.9942C28.5846 46.7065 28.8052 46.3037 28.8052 45.7858C28.8052 45.7426 28.8408 45.721 28.912 45.721C28.9974 45.721 29.0401 45.7426 29.0401 45.7858L29.0188 47.7279L29.0401 48.7637C29.0686 49.2528 29.0828 49.6412 29.0828 49.9289C29.0828 49.9577 29.0401 49.9721 28.9547 49.9721C28.8693 49.9721 28.8266 49.9577 28.8266 49.9289C28.8266 49.3391 28.5988 48.8788 28.1433 48.5479C27.702 48.2026 27.0614 48.03 26.2215 48.03H24.4706V52.9068C24.4706 53.324 24.5489 53.6333 24.7054 53.8347C24.862 54.0361 25.1112 54.1368 25.4528 54.1368H26.1575C27.2678 54.1368 28.1575 53.9067 28.8266 53.4463C29.4956 52.986 29.9868 52.2739 30.2999 51.31Z" stroke="black" stroke-width="2" mask="url(#path-1-inside-1)"/>
<path d="M38.4516 54.8274C37.9961 54.8274 37.4552 54.8058 36.8288 54.7626C36.601 54.7482 36.3163 54.7339 35.9747 54.7195C35.6473 54.7051 35.2771 54.6979 34.8643 54.6979L33.2842 54.7195C32.9995 54.7339 32.6151 54.7411 32.1311 54.7411C32.1027 54.7411 32.0884 54.6979 32.0884 54.6116C32.0884 54.5253 32.1027 54.4821 32.1311 54.4821C32.5867 54.4821 32.9212 54.4461 33.1347 54.3742C33.3483 54.3023 33.4906 54.1656 33.5618 53.9642C33.6472 53.7484 33.6899 53.4247 33.6899 52.9932V43.0021C33.6899 42.5705 33.6472 42.254 33.5618 42.0526C33.4906 41.8512 33.3483 41.7145 33.1347 41.6426C32.9354 41.5563 32.6151 41.5131 32.1738 41.5131C32.1311 41.5131 32.1098 41.47 32.1098 41.3836C32.1098 41.2973 32.1311 41.2542 32.1738 41.2542L33.3056 41.2758C33.9604 41.3045 34.48 41.3189 34.8643 41.3189C35.448 41.3189 36.0459 41.2973 36.658 41.2542C37.3982 41.2254 37.8965 41.211 38.1527 41.211C39.5905 41.211 40.8645 41.4987 41.9749 42.0742C43.0995 42.6496 43.9678 43.4337 44.58 44.4263C45.1921 45.4189 45.4981 46.5338 45.4981 47.771C45.4981 49.1665 45.1778 50.4037 44.5373 51.4826C43.9109 52.5472 43.0568 53.3744 41.9749 53.9642C40.9072 54.5396 39.7328 54.8274 38.4516 54.8274ZM38.2381 54.3311C39.1492 54.3311 39.9535 54.1009 40.651 53.6405C41.3485 53.1658 41.8895 52.4681 42.2738 51.5474C42.6724 50.6267 42.8717 49.5261 42.8717 48.2458C42.8717 47.023 42.6867 45.9152 42.3165 44.9226C41.9464 43.9156 41.4197 43.1244 40.7364 42.5489C40.0531 41.9735 39.2631 41.6858 38.3662 41.6858C37.4836 41.6858 36.8786 41.7721 36.5512 41.9447C36.2238 42.1173 36.0601 42.4842 36.0601 43.0452V52.7558C36.0601 53.3312 36.2096 53.7412 36.5085 53.9858C36.8075 54.216 37.384 54.3311 38.2381 54.3311Z" stroke="black" stroke-width="2" mask="url(#path-1-inside-1)"/>
<path d="M55.2795 55C53.7136 55 52.347 54.6979 51.1797 54.0937C50.0124 53.4895 49.1227 52.6695 48.5106 51.6337C47.8985 50.5835 47.5924 49.4182 47.5924 48.1379C47.5924 46.7568 47.9412 45.5268 48.6387 44.4479C49.3505 43.3545 50.3185 42.5129 51.5427 41.9231C52.7812 41.3189 54.162 41.0168 55.6852 41.0168C56.3543 41.0168 57.0305 41.0743 57.7137 41.1894C58.397 41.2901 58.9451 41.4268 59.3579 41.5994C59.4861 41.6426 59.5643 41.7001 59.5928 41.7721C59.6355 41.8296 59.664 41.9375 59.6782 42.0958L59.9558 45.0952C59.9558 45.1384 59.9202 45.1672 59.8491 45.1815C59.7779 45.1959 59.7281 45.1744 59.6996 45.1168C59.2013 44.0091 58.5109 43.1459 57.6283 42.5273C56.76 41.9087 55.7635 41.5994 54.6389 41.5994C53.1869 41.5994 52.0765 42.1101 51.3078 43.1315C50.5534 44.153 50.1761 45.5484 50.1761 47.3179C50.1761 48.7421 50.4181 50.0153 50.9021 51.1374C51.3861 52.2451 52.0552 53.1082 52.9093 53.7268C53.7777 54.3311 54.7457 54.6332 55.8133 54.6332C56.397 54.6332 56.8454 54.5684 57.1586 54.4389C57.4717 54.3095 57.6995 54.0577 57.8419 53.6837C57.9842 53.3096 58.0554 52.7558 58.0554 52.0221C58.0554 51.274 58.0127 50.7561 57.9273 50.4684C57.8419 50.1663 57.6568 49.9649 57.3721 49.8642C57.1016 49.7635 56.6247 49.7131 55.9414 49.7131C55.856 49.7131 55.8133 49.6556 55.8133 49.5405C55.8133 49.4974 55.8204 49.4614 55.8347 49.4326C55.8632 49.3895 55.8916 49.3679 55.9201 49.3679C57.1301 49.4398 58.1052 49.4758 58.8455 49.4758C59.5715 49.4758 60.3259 49.4542 61.1089 49.411C61.1374 49.411 61.1587 49.4326 61.1729 49.4758C61.2014 49.5045 61.2156 49.5333 61.2156 49.5621C61.2156 49.6628 61.1801 49.7131 61.1089 49.7131C60.8526 49.6988 60.6747 49.7491 60.5751 49.8642C60.4754 49.9649 60.4114 50.1807 60.3829 50.5116C60.3544 50.8281 60.3402 51.4035 60.3402 52.2379C60.3402 52.8853 60.3615 53.3456 60.4042 53.6189C60.4612 53.8923 60.4896 54.0649 60.4896 54.1368C60.4896 54.2232 60.4683 54.2807 60.4256 54.3095C60.3971 54.3382 60.3331 54.367 60.2334 54.3958C58.397 54.7986 56.7457 55 55.2795 55Z" stroke="black" stroke-width="2" mask="url(#path-1-inside-1)"/>
<path d="M72.4847 51.31C72.4847 51.2812 72.5132 51.2668 72.5701 51.2668C72.6128 51.2668 72.6484 51.2812 72.6769 51.31C72.7196 51.3244 72.741 51.3388 72.741 51.3531C72.5986 52.4753 72.5274 53.4967 72.5274 54.4174C72.5274 54.5325 72.5061 54.6188 72.4634 54.6763C72.4207 54.7195 72.3353 54.7411 72.2071 54.7411H62.7691C62.7264 54.7411 62.705 54.6979 62.705 54.6116C62.705 54.5253 62.7264 54.4821 62.7691 54.4821C63.2246 54.4821 63.552 54.4461 63.7513 54.3742C63.9649 54.3023 64.1072 54.1656 64.1784 53.9642C64.2496 53.7484 64.2851 53.4247 64.2851 52.9932V43.0021C64.2851 42.5705 64.2496 42.254 64.1784 42.0526C64.1072 41.8512 63.9649 41.7145 63.7513 41.6426C63.5378 41.5563 63.2104 41.5131 62.7691 41.5131C62.7264 41.5131 62.705 41.47 62.705 41.3836C62.705 41.2973 62.7264 41.2542 62.7691 41.2542H71.8228C71.9651 41.2542 72.0363 41.3189 72.0363 41.4484L72.079 44.3184C72.079 44.3472 72.0363 44.3687 71.9509 44.3831C71.8797 44.3975 71.837 44.3831 71.8228 44.34C71.595 43.5056 71.2107 42.887 70.6697 42.4842C70.1288 42.0814 69.417 41.88 68.5344 41.88H67.8938C67.4668 41.88 67.1536 41.9735 66.9543 42.1605C66.755 42.3475 66.6553 42.6352 66.6553 43.0237V47.4258H68.4276C69.2533 47.4258 69.8868 47.2819 70.3281 46.9942C70.7694 46.7065 70.99 46.3037 70.99 45.7858C70.99 45.7426 71.0256 45.721 71.0968 45.721C71.1822 45.721 71.2249 45.7426 71.2249 45.7858L71.2035 47.7279L71.2249 48.7637C71.2534 49.2528 71.2676 49.6412 71.2676 49.9289C71.2676 49.9577 71.2249 49.9721 71.1395 49.9721C71.0541 49.9721 71.0114 49.9577 71.0114 49.9289C71.0114 49.3391 70.7836 48.8788 70.3281 48.5479C69.8868 48.2026 69.2462 48.03 68.4063 48.03H66.6553V52.9068C66.6553 53.324 66.7336 53.6333 66.8902 53.8347C67.0468 54.0361 67.2959 54.1368 67.6376 54.1368H68.3422C69.4526 54.1368 70.3423 53.9067 71.0114 53.4463C71.6804 52.986 72.1715 52.2739 72.4847 51.31Z" stroke="black" stroke-width="2" mask="url(#path-1-inside-1)"/>
<path d="M89.3057 54.4821C89.3484 54.4821 89.3698 54.5253 89.3698 54.6116C89.3698 54.6979 89.3484 54.7411 89.3057 54.7411C88.8075 54.7411 88.4089 54.7339 88.11 54.7195L86.4658 54.6979L84.544 54.7195C84.2878 54.7339 83.939 54.7411 83.4977 54.7411C83.455 54.7411 83.4337 54.6979 83.4337 54.6116C83.4337 54.5253 83.455 54.4821 83.4977 54.4821C84.0244 54.4821 84.4088 54.4461 84.6508 54.3742C84.8928 54.3023 85.0565 54.1656 85.1419 53.9642C85.2273 53.7628 85.27 53.4391 85.27 52.9932V48.03H78.373V52.9932C78.373 53.4247 78.4157 53.7484 78.5011 53.9642C78.5865 54.1656 78.7502 54.3023 78.9922 54.3742C79.2342 54.4461 79.6186 54.4821 80.1453 54.4821C80.1738 54.4821 80.188 54.5253 80.188 54.6116C80.188 54.6979 80.1738 54.7411 80.1453 54.7411C79.6471 54.7411 79.2485 54.7339 78.9495 54.7195L77.0918 54.6979L75.4903 54.7195C75.2056 54.7339 74.8141 54.7411 74.3159 54.7411C74.2874 54.7411 74.2732 54.6979 74.2732 54.6116C74.2732 54.5253 74.2874 54.4821 74.3159 54.4821C74.8141 54.4821 75.1771 54.4461 75.4049 54.3742C75.6327 54.3023 75.7893 54.1656 75.8747 53.9642C75.9601 53.7484 76.0028 53.4247 76.0028 52.9932V43.0021C76.0028 42.5705 75.9601 42.254 75.8747 42.0526C75.7893 41.8512 75.6327 41.7145 75.4049 41.6426C75.1914 41.5563 74.8426 41.5131 74.3586 41.5131C74.3159 41.5131 74.2946 41.47 74.2946 41.3836C74.2946 41.2973 74.3159 41.2542 74.3586 41.2542L75.5117 41.2758C76.1665 41.3045 76.6932 41.3189 77.0918 41.3189C77.6327 41.3189 78.2591 41.3045 78.9709 41.2758L80.1453 41.2542C80.1738 41.2542 80.188 41.2973 80.188 41.3836C80.188 41.47 80.1738 41.5131 80.1453 41.5131C79.6328 41.5131 79.2556 41.5563 79.0136 41.6426C78.7716 41.7289 78.6008 41.88 78.5011 42.0958C78.4157 42.2972 78.373 42.6137 78.373 43.0452V47.4258H85.27V43.0452C85.27 42.6137 85.2273 42.2972 85.1419 42.0958C85.0565 41.88 84.8928 41.7289 84.6508 41.6426C84.4088 41.5563 84.0244 41.5131 83.4977 41.5131C83.455 41.5131 83.4337 41.47 83.4337 41.3836C83.4337 41.2973 83.455 41.2542 83.4977 41.2542L84.544 41.2758C85.2558 41.3045 85.8964 41.3189 86.4658 41.3189C86.8502 41.3189 87.3982 41.3045 88.11 41.2758L89.3057 41.2542C89.3484 41.2542 89.3698 41.2973 89.3698 41.3836C89.3698 41.47 89.3484 41.5131 89.3057 41.5131C88.8217 41.5131 88.4587 41.5563 88.2167 41.6426C87.989 41.7145 87.8324 41.8512 87.747 42.0526C87.6758 42.254 87.6402 42.5705 87.6402 43.0021V52.9932C87.6402 53.4247 87.6758 53.7484 87.747 53.9642C87.8324 54.1656 87.989 54.3023 88.2167 54.3742C88.4445 54.4461 88.8075 54.4821 89.3057 54.4821Z" stroke="black" stroke-width="2" mask="url(#path-1-inside-1)"/>
<path d="M97.7972 55C96.4734 55 95.2918 54.6907 94.2526 54.0721C93.2277 53.4391 92.4305 52.5903 91.8611 51.5258C91.3059 50.4468 91.0283 49.2744 91.0283 48.0084C91.0283 46.5266 91.3985 45.2607 92.1387 44.2105C92.8789 43.1459 93.8256 42.3475 94.9786 41.8152C96.1459 41.2829 97.3346 41.0168 98.5446 41.0168C99.897 41.0168 101.086 41.3405 102.111 41.9879C103.136 42.6208 103.918 43.4624 104.459 44.5126C105.015 45.5628 105.292 46.6777 105.292 47.8573C105.292 49.1665 104.951 50.3677 104.267 51.461C103.584 52.5544 102.666 53.4175 101.513 54.0505C100.374 54.6835 99.1354 55 97.7972 55ZM98.5019 54.4605C99.2991 54.4605 100.011 54.2303 100.637 53.77C101.278 53.2953 101.776 52.6119 102.132 51.72C102.488 50.8137 102.666 49.7347 102.666 48.4831C102.666 47.1596 102.466 45.98 102.068 44.9442C101.669 43.894 101.093 43.074 100.338 42.4842C99.5838 41.8943 98.7012 41.5994 97.6905 41.5994C96.3951 41.5994 95.3986 42.0958 94.7011 43.0884C94.0035 44.0666 93.6548 45.4405 93.6548 47.21C93.6548 48.6054 93.8612 49.857 94.274 50.9647C94.7011 52.0581 95.2776 52.914 96.0036 53.5326C96.7438 54.1512 97.5766 54.4605 98.5019 54.4605Z" stroke="black" stroke-width="2" mask="url(#path-1-inside-1)"/>
<path d="M115.064 55C113.498 55 112.131 54.6979 110.964 54.0937C109.797 53.4895 108.907 52.6695 108.295 51.6337C107.683 50.5835 107.377 49.4182 107.377 48.1379C107.377 46.7568 107.726 45.5268 108.423 44.4479C109.135 43.3545 110.103 42.5129 111.327 41.9231C112.566 41.3189 113.946 41.0168 115.47 41.0168C116.139 41.0168 116.815 41.0743 117.498 41.1894C118.181 41.2901 118.729 41.4268 119.142 41.5994C119.27 41.6426 119.349 41.7001 119.377 41.7721C119.42 41.8296 119.448 41.9375 119.463 42.0958L119.74 45.0952C119.74 45.1384 119.705 45.1672 119.633 45.1815C119.562 45.1959 119.512 45.1744 119.484 45.1168C118.986 44.0091 118.295 43.1459 117.413 42.5273C116.544 41.9087 115.548 41.5994 114.423 41.5994C112.971 41.5994 111.861 42.1101 111.092 43.1315C110.338 44.153 109.96 45.5484 109.96 47.3179C109.96 48.7421 110.202 50.0153 110.686 51.1374C111.17 52.2451 111.84 53.1082 112.694 53.7268C113.562 54.3311 114.53 54.6332 115.598 54.6332C116.181 54.6332 116.63 54.5684 116.943 54.4389C117.256 54.3095 117.484 54.0577 117.626 53.6837C117.769 53.3096 117.84 52.7558 117.84 52.0221C117.84 51.274 117.797 50.7561 117.712 50.4684C117.626 50.1663 117.441 49.9649 117.156 49.8642C116.886 49.7635 116.409 49.7131 115.726 49.7131C115.64 49.7131 115.598 49.6556 115.598 49.5405C115.598 49.4974 115.605 49.4614 115.619 49.4326C115.648 49.3895 115.676 49.3679 115.704 49.3679C116.914 49.4398 117.89 49.4758 118.63 49.4758C119.356 49.4758 120.11 49.4542 120.893 49.411C120.922 49.411 120.943 49.4326 120.957 49.4758C120.986 49.5045 121 49.5333 121 49.5621C121 49.6628 120.964 49.7131 120.893 49.7131C120.637 49.6988 120.459 49.7491 120.359 49.8642C120.26 49.9649 120.196 50.1807 120.167 50.5116C120.139 50.8281 120.125 51.4035 120.125 52.2379C120.125 52.8853 120.146 53.3456 120.189 53.6189C120.246 53.8923 120.274 54.0649 120.274 54.1368C120.274 54.2232 120.253 54.2807 120.21 54.3095C120.181 54.3382 120.117 54.367 120.018 54.3958C118.181 54.7986 116.53 55 115.064 55Z" stroke="black" stroke-width="2" mask="url(#path-1-inside-1)"/>
<path d="M87.5711 17.6539H117.932V18.9323H87.5711V17.6539Z" stroke="black" stroke-width="2" mask="url(#path-1-inside-1)"/>
<path d="M5.3433 17.6539H34.4393V18.9323H5.3433V17.6539Z" stroke="black" stroke-width="2" mask="url(#path-1-inside-1)"/>
</g>
<defs>
<filter id="filter0_d" x="0" y="0" width="125" height="63" filterUnits="userSpaceOnUse" color-interpolation-filters="sRGB">
<feFlood flood-opacity="0" result="BackgroundImageFix"/>
<feColorMatrix in="SourceAlpha" type="matrix" values="0 0 0 0 0 0 0 0 0 0 0 0 0 0 0 0 0 0 127 0"/>
<feOffset dy="4"/>
<feGaussianBlur stdDeviation="2"/>
<feColorMatrix type="matrix" values="0 0 0 0 0 0 0 0 0 0 0 0 0 0 0 0 0 0 0.25 0"/>
<feBlend mode="normal" in2="BackgroundImageFix" result="effect1_dropShadow"/>
<feBlend mode="normal" in="SourceGraphic" in2="effect1_dropShadow" result="shape"/>
</filter>
</defs>
</svg>
